<svg id="Layer_1" data-name="Layer 1" xmlns="http://www.w3.org/2000/svg" xmlns:xlink="http://www.w3.org/1999/xlink" viewBox="0 0 91.31 37.51"><defs><style>.cls-1{fill:url(#linear-gradient);}.cls-2{fill:#f1f2f2;}</style><linearGradient id="linear-gradient" x1="29.79" y1="36.66" x2="29.79" y2="74.16" gradientTransform="matrix(1, 0, 0, -1, -11.04, 74.16)" gradientUnits="userSpaceOnUse"><stop offset="0.18" stop-color="#2cb565"/><stop offset="1" stop-color="#69bf67"/></linearGradient></defs><g id="Layer_2" data-name="Layer 2"><g id="Layer_1-2" data-name="Layer 1-2"><rect class="cls-1" width="37.51" height="37.51" rx="18.75"/><path class="cls-2" d="M22.9,43.65h.4a.46.46,0,0,0,.52-.41.46.46,0,0,0-.4-.52h-.55a.47.47,0,0,0-.51.44.33.33,0,0,0,0,.14A.55.55,0,0,0,22.9,43.65Z" transform="translate(-11.04 -33.84)"/><path class="cls-2" d="M16.68,52H20.9a.46.46,0,0,0,.52-.41.48.48,0,0,0-.41-.52H16.7a.54.54,0,0,0-.52.34.47.47,0,0,0,.34.57l.1,0Z" transform="translate(-11.04 -33.84)"/><path class="cls-2" d="M24.1,50.12H27a.47.47,0,1,0,.11-.93h-3a.52.52,0,0,0-.52.33.47.47,0,0,0,.33.58h.16Z" transform="translate(-11.04 -33.84)"/><path class="cls-2" d="M23,56.4h1.2a.47.47,0,0,0,.12-.93H23a.48.48,0,0,0-.52.44.33.33,0,0,0,0,.14A.54.54,0,0,0,23,56.4Z" transform="translate(-11.04 -33.84)"/><path class="cls-2" d="M23.88,63.82H20.31a.51.51,0,0,0-.52.33.46.46,0,0,0,.33.57l.11,0h3.65a.47.47,0,0,0,.11-.93h-.11Z" transform="translate(-11.04 -33.84)"/><path class="cls-2" d="M21.32,53.13h-2a.47.47,0,0,0-.47.46h0a.47.47,0,0,0,.47.47h2a.47.47,0,0,0,0-.93Z" transform="translate(-11.04 -33.84)"/><path class="cls-2" d="M21.87,49.19a.49.49,0,0,0-.53.46.45.45,0,0,0,.15.33.67.67,0,0,0,.36.14h.25a.46.46,0,0,0,.46-.47h0a.46.46,0,0,0-.46-.46Z" transform="translate(-11.04 -33.84)"/><path class="cls-2" d="M31.37,40.39H19.82a.47.47,0,0,0-.43.52h0a.52.52,0,0,0,.56.39h7.14a.71.71,0,0,1,.71.72h0a.74.74,0,0,1-.74.74H25.15a.54.54,0,0,0-.53.36.48.48,0,0,0,.38.56.28.28,0,0,0,.13,0h1.78a.66.66,0,0,1,.65.45.64.64,0,0,1-.41.82.69.69,0,0,1-.2,0H24a.47.47,0,0,0,0,.93h2.32a.65.65,0,1,1,0,1.29H23.8a.48.48,0,0,0-.52.45.62.62,0,0,0,0,.13.53.53,0,0,0,.53.35h3.44a.53.53,0,0,1,.48.57.52.52,0,0,1-.48.48H24.1a.48.48,0,0,0-.52.44.34.34,0,0,0,0,.14.53.53,0,0,0,.52.36h4.66a.5.5,0,0,1,0,1H23.27a.52.52,0,0,0-.53.36.48.48,0,0,0,.37.57h3.57a.54.54,0,0,1,.47.6.55.55,0,0,1-.47.47H23a.47.47,0,1,0,0,.93h4.18a.76.76,0,0,1,.79.67.74.74,0,0,1-.67.8H25.87a.53.53,0,0,0-.53.36.48.48,0,0,0,.37.57h2.73a.65.65,0,0,1,.64.44.64.64,0,0,1-.44.79l-.17,0H25.3a.49.49,0,0,0-.52.46.46.46,0,0,0,.16.33.57.57,0,0,0,.35.14h2a.65.65,0,0,1,.66.44.66.66,0,0,1-.41.83.76.76,0,0,1-.21,0H25.6a.48.48,0,0,0-.51.45.62.62,0,0,0,0,.13.52.52,0,0,0,.53.35h2.08a.53.53,0,0,1,0,1H24.23a.47.47,0,0,0-.51.44.71.71,0,0,0,0,.14.53.53,0,0,0,.53.35H28.7a.51.51,0,0,1,0,1h-3a.54.54,0,0,0-.54.36.48.48,0,0,0,.38.56h5.65a14.35,14.35,0,0,0,9.31-3.74,11.58,11.58,0,0,0,3.84-8.48C44.3,46.06,38.55,40.72,31.37,40.39Zm2.85,21.26a2.26,2.26,0,0,1-2.89-2V45.52a2.24,2.24,0,0,1,2.89-2c4.4,1.13,7.63,4.76,7.63,9.06S38.62,60.52,34.22,61.65Z" transform="translate(-11.04 -33.84)"/></g></g><path d="M52.42,56.73V45.21H56.5q6.14,0,6.13,5.61A5.66,5.66,0,0,1,61,55.12a6.18,6.18,0,0,1-4.46,1.61ZM55,47.32v7.3H56.3a3.48,3.48,0,0,0,2.64-1,3.83,3.83,0,0,0,1-2.76A3.47,3.47,0,0,0,59,48.26a3.61,3.61,0,0,0-2.67-.94Z" transform="translate(-11.04 -33.84)"/><path d="M71.69,53.34H66.32c.09,1.19.84,1.79,2.26,1.79A4.46,4.46,0,0,0,71,54.49v1.83a6.35,6.35,0,0,1-3,.61,3.83,3.83,0,0,1-4.19-4.19A4.36,4.36,0,0,1,65,49.5a3.94,3.94,0,0,1,2.92-1.2,3.59,3.59,0,0,1,2.78,1.07,4.1,4.1,0,0,1,1,2.9Zm-2.36-1.56c0-1.18-.47-1.77-1.43-1.77a1.35,1.35,0,0,0-1.05.51,2.28,2.28,0,0,0-.55,1.26Z" transform="translate(-11.04 -33.84)"/><path d="M79.43,56.43a5,5,0,0,1-2.48.5,4.21,4.21,0,0,1-3.07-1.15,4,4,0,0,1-1.17-3A4.39,4.39,0,0,1,74,49.51a4.64,4.64,0,0,1,3.37-1.21,4.27,4.27,0,0,1,2.1.39v2.15a2.88,2.88,0,0,0-1.78-.6,2.38,2.38,0,0,0-1.73.64,2.43,2.43,0,0,0-.64,1.77,2.33,2.33,0,0,0,.62,1.71,2.2,2.2,0,0,0,1.67.62,3.32,3.32,0,0,0,1.86-.59Z" transform="translate(-11.04 -33.84)"/><path d="M89.33,56.73h-3l-2.63-4.08h0v4.08H81.09V44.55h2.54V52.3h0l2.45-3.8h3l-2.95,3.86Z" transform="translate(-11.04 -33.84)"/><path d="M92.83,56.73H90.29V44.55h2.54Z" transform="translate(-11.04 -33.84)"/><path d="M102.35,53.34H97c.08,1.19.84,1.79,2.26,1.79a4.46,4.46,0,0,0,2.38-.64v1.83a6.35,6.35,0,0,1-3,.61,3.84,3.84,0,0,1-4.2-4.19,4.4,4.4,0,0,1,1.19-3.24,4,4,0,0,1,2.93-1.2,3.6,3.6,0,0,1,2.78,1.07,4.09,4.09,0,0,1,1,2.9ZM100,51.78c0-1.18-.48-1.77-1.43-1.77a1.37,1.37,0,0,0-1.06.51A2.34,2.34,0,0,0,97,51.78Z" transform="translate(-11.04 -33.84)"/><path d="M58.14,59.37,57,63.58h-.58l-.86-3.08a1.84,1.84,0,0,1-.07-.42h0a2.07,2.07,0,0,1-.08.42l-.87,3.08h-.57l-1.23-4.21h.54l.9,3.23a2.63,2.63,0,0,1,.07.42h0a2.48,2.48,0,0,1,.09-.42l.93-3.23h.47l.89,3.25a1.43,1.43,0,0,1,.07.39h0a1.55,1.55,0,0,1,.08-.4l.85-3.24Z" transform="translate(-11.04 -33.84)"/><path d="M61,62.2H58.85a1,1,0,0,0,.27.77.91.91,0,0,0,.7.27,1.52,1.52,0,0,0,.94-.33v.45a1.79,1.79,0,0,1-1,.29,1.28,1.28,0,0,1-1-.41,1.7,1.7,0,0,1-.36-1.15A1.64,1.64,0,0,1,58.74,61a1.28,1.28,0,0,1,1-.45,1.11,1.11,0,0,1,.91.39,1.53,1.53,0,0,1,.32,1Zm-.49-.41a1,1,0,0,0-.2-.65.69.69,0,0,0-.55-.23.8.8,0,0,0-.58.24,1.19,1.19,0,0,0-.29.64Z" transform="translate(-11.04 -33.84)"/><path d="M64.82,59.56a.59.59,0,0,0-.32-.08q-.51,0-.51.63v.47h.71V61H64v2.59h-.47V61H63v-.41h.52v-.49a1,1,0,0,1,.27-.75.93.93,0,0,1,.68-.27,1.13,1.13,0,0,1,.35,0Z" transform="translate(-11.04 -33.84)"/><path d="M66.47,63.65a1.41,1.41,0,0,1-1.07-.42,1.85,1.85,0,0,1,0-2.3,1.51,1.51,0,0,1,1.12-.43,1.33,1.33,0,0,1,1,.42A1.63,1.63,0,0,1,68,62.06a1.6,1.6,0,0,1-.41,1.15A1.41,1.41,0,0,1,66.47,63.65Zm0-2.74a.9.9,0,0,0-.73.31,1.29,1.29,0,0,0-.27.87,1.21,1.21,0,0,0,.27.84.92.92,0,0,0,.73.31.89.89,0,0,0,.72-.3,1.35,1.35,0,0,0,.25-.86,1.41,1.41,0,0,0-.25-.87A.89.89,0,0,0,66.5,60.91Z" transform="translate(-11.04 -33.84)"/><path d="M70.77,63.44a1.54,1.54,0,0,1-.82.21,1.33,1.33,0,0,1-1-.42,1.49,1.49,0,0,1-.4-1.08A1.65,1.65,0,0,1,69,61a1.51,1.51,0,0,1,1.13-.45,1.57,1.57,0,0,1,.7.15v.49a1.26,1.26,0,0,0-.72-.23,1,1,0,0,0-.75.33,1.39,1.39,0,0,0,0,1.7,1,1,0,0,0,.74.3,1.21,1.21,0,0,0,.74-.26Z" transform="translate(-11.04 -33.84)"/><path d="M73.92,63.58h-.48V63.1h0a1,1,0,0,1-.92.55c-.72,0-1.08-.43-1.08-1.28V60.58h.48v1.71c0,.63.24,1,.73,1a.72.72,0,0,0,.58-.26,1,1,0,0,0,.22-.68V60.58h.48Z" transform="translate(-11.04 -33.84)"/><path d="M74.71,63.47V63a1.44,1.44,0,0,0,.87.29q.63,0,.63-.42a.39.39,0,0,0,0-.2.54.54,0,0,0-.15-.15.91.91,0,0,0-.22-.12l-.27-.1a3.84,3.84,0,0,1-.35-.17.94.94,0,0,1-.25-.18.61.61,0,0,1-.15-.23.85.85,0,0,1,0-.3.66.66,0,0,1,.1-.37.81.81,0,0,1,.25-.27,1.14,1.14,0,0,1,.37-.17,1.54,1.54,0,0,1,.43-.06,1.67,1.67,0,0,1,.69.14v.49a1.31,1.31,0,0,0-.76-.22.88.88,0,0,0-.24,0,.56.56,0,0,0-.19.09.37.37,0,0,0-.12.13.33.33,0,0,0,0,.17.42.42,0,0,0,0,.2.43.43,0,0,0,.13.14.75.75,0,0,0,.2.11l.26.11.36.15a1.17,1.17,0,0,1,.27.19.66.66,0,0,1,.17.23.75.75,0,0,1,.06.31.71.71,0,0,1-.1.39.75.75,0,0,1-.26.27,1.09,1.09,0,0,1-.38.16,1.61,1.61,0,0,1-.44.06A1.73,1.73,0,0,1,74.71,63.47Z" transform="translate(-11.04 -33.84)"/><path d="M80.34,63.65a1.37,1.37,0,0,1-1.06-.42,1.55,1.55,0,0,1-.4-1.12,1.64,1.64,0,0,1,.41-1.18,1.51,1.51,0,0,1,1.12-.43,1.35,1.35,0,0,1,1,.42,1.63,1.63,0,0,1,.37,1.14,1.6,1.6,0,0,1-.4,1.15A1.43,1.43,0,0,1,80.34,63.65Zm0-2.74a.9.9,0,0,0-.73.31,1.29,1.29,0,0,0-.27.87,1.21,1.21,0,0,0,.27.84.93.93,0,0,0,.73.31.89.89,0,0,0,.72-.3,1.3,1.3,0,0,0,.25-.86,1.35,1.35,0,0,0-.25-.87A.89.89,0,0,0,80.37,60.91Z" transform="translate(-11.04 -33.84)"/><path d="M85.09,63.58h-.48V61.86c0-.63-.23-1-.7-1a.74.74,0,0,0-.59.27,1,1,0,0,0-.24.68v1.72H82.6v-3h.48v.49h0a1.09,1.09,0,0,1,1-.57.92.92,0,0,1,.75.32,1.46,1.46,0,0,1,.26.92Z" transform="translate(-11.04 -33.84)"/><path d="M90.2,63.58h-.48v-.51h0a1.21,1.21,0,0,1-1.94.17,1.67,1.67,0,0,1-.34-1.09,1.82,1.82,0,0,1,.38-1.2,1.23,1.23,0,0,1,1-.45,1,1,0,0,1,.9.49h0V59.13h.48Zm-.48-1.36v-.44a.86.86,0,0,0-.24-.62.79.79,0,0,0-.61-.25.85.85,0,0,0-.69.32,1.41,1.41,0,0,0-.25.89,1.27,1.27,0,0,0,.24.82.78.78,0,0,0,.65.3.84.84,0,0,0,.65-.29A1.11,1.11,0,0,0,89.72,62.22Z" transform="translate(-11.04 -33.84)"/><path d="M92.43,63.65a1.41,1.41,0,0,1-1.07-.42,1.85,1.85,0,0,1,0-2.3,1.51,1.51,0,0,1,1.12-.43,1.33,1.33,0,0,1,1,.42,1.63,1.63,0,0,1,.38,1.14,1.6,1.6,0,0,1-.41,1.15A1.41,1.41,0,0,1,92.43,63.65Zm0-2.74a.9.9,0,0,0-.73.31,1.29,1.29,0,0,0-.27.87,1.21,1.21,0,0,0,.27.84.92.92,0,0,0,.73.31.89.89,0,0,0,.72-.3,1.35,1.35,0,0,0,.25-.86,1.41,1.41,0,0,0-.25-.87A.89.89,0,0,0,92.46,60.91Z" transform="translate(-11.04 -33.84)"/><path d="M94.85,63.64a.27.27,0,0,1-.22-.1.31.31,0,0,1,0-.46.27.27,0,0,1,.22-.1.31.31,0,0,1,.24.1.31.31,0,0,1,0,.46A.31.31,0,0,1,94.85,63.64Z" transform="translate(-11.04 -33.84)"/></svg>